<svg xmlns="http://www.w3.org/2000/svg" xmlns:xlink="http://www.w3.org/1999/xlink" x="0px" y="0px" viewBox="0 0 2500 426.7" style="enable-background:new 0 0 2500 426.7;" xml:space="preserve"><style type="text/css">	.wdt-decor-bg-with-out-mask-0{fill:#FE0C0A;}	.wdt-decor-bg-with-out-mask-1{fill:#FFDF1D;}	.wdt-decor-bg-with-out-mask-2{fill:#FF92B2;}	.wdt-decor-bg-with-out-mask-3{fill:#7EF9C1;}	.wdt-decor-bg-with-out-mask-4{fill:#04ABBD;}	.wdt-decor-bg-with-out-mask-5{fill:#810332;}</style><path class="wdt-decor-bg-with-out-mask-0" d="M364.8,405.7c3,0,5.5,2.4,5.5,5.5c0,3-2.4,5.5-5.5,5.5c-3,0-5.5-2.4-5.5-5.5 C359.3,408.2,361.8,405.7,364.8,405.7z"></path><path class="wdt-decor-bg-with-out-mask-0" d="M58,299.2c3.4,0,6.1,2.7,6.1,6.1s-2.8,6.1-6.1,6.1c-3.4,0-6.1-2.7-6.1-6.1S54.6,299.2,58,299.2z"></path><path class="wdt-decor-bg-with-out-mask-1" d="M130.3,366.1c4.4,0,8,3.6,8,8c0,4.4-3.6,8-8,8c-4.4,0-8-3.6-8-8C122.2,369.7,125.8,366.1,130.3,366.1z"></path><path class="wdt-decor-bg-with-out-mask-1" d="M211.9,305.9c4.2,0,7.5,3.4,7.5,7.5c0,4.2-3.4,7.5-7.5,7.5s-7.5-3.4-7.5-7.5 C204.3,309.3,207.7,305.9,211.9,305.9z"></path><path class="wdt-decor-bg-with-out-mask-2" d="M299.4,249.9c3.3,0,6,2.7,6,6c0,3.3-2.7,6-6,6s-6-2.7-6-6C293.4,252.6,296.1,249.9,299.4,249.9z"></path><path class="wdt-decor-bg-with-out-mask-3" d="M585.2,333.8c3.1,0,5.7,2.5,5.7,5.7c0,3.1-2.5,5.7-5.7,5.7s-5.7-2.5-5.7-5.7C579.5,336.4,582,333.8,585.2,333.8 z"></path><path class="wdt-decor-bg-with-out-mask-4" d="M680,307.3c3.4,0,6.2,2.8,6.2,6.2c0,3.4-2.8,6.2-6.2,6.2c-3.4,0-6.2-2.8-6.2-6.2 C673.9,310,676.6,307.3,680,307.3z"></path><path class="wdt-decor-bg-with-out-mask-2" d="M434.3,227.5c3.8,0,6.9,3.1,6.9,6.9c0,3.8-3.1,6.9-6.9,6.9c-3.8,0-6.9-3.1-6.9-6.9 C427.4,230.6,430.5,227.5,434.3,227.5z"></path><path class="wdt-decor-bg-with-out-mask-1" d="M179.5,28.2c3.6,0,6.6,2.9,6.6,6.5c0,3.6-2.9,6.5-6.6,6.5s-6.6-2.9-6.6-6.5C172.9,31.1,175.9,28.2,179.5,28.2z"></path><path class="wdt-decor-bg-with-out-mask-0" d="M580.7,182.9c3.5,0,6.4,2.9,6.4,6.4c0,3.5-2.9,6.4-6.4,6.4c-3.5,0-6.4-2.9-6.4-6.4 C574.3,185.8,577.1,182.9,580.7,182.9z"></path><path class="wdt-decor-bg-with-out-mask-2" d="M424.7,92c4,0,7.2,3.2,7.2,7.2c0,4-3.2,7.2-7.2,7.2c-4,0-7.2-3.2-7.2-7.2C417.5,95.2,420.7,92,424.7,92z"></path><path class="wdt-decor-bg-with-out-mask-2" d="M935.4,236.9c3.6,0,6.5,2.9,6.5,6.5c0,3.6-2.9,6.5-6.5,6.5c-3.6,0-6.5-2.9-6.5-6.5 C928.9,239.8,931.8,236.9,935.4,236.9z"></path><path class="wdt-decor-bg-with-out-mask-5" d="M856.2,285.6c4.4,0,8,3.6,8,8c0,4.4-3.6,8-8,8c-4.4,0-8-3.6-8-8C848.2,289.2,851.8,285.6,856.2,285.6z"></path><path class="wdt-decor-bg-with-out-mask-0" d="M889,41.9c4,0,7.3,3.3,7.3,7.3c0,4-3.3,7.3-7.3,7.3c-4,0-7.3-3.3-7.3-7.3C881.8,45.1,885,41.9,889,41.9z"></path><path class="wdt-decor-bg-with-out-mask-4" d="M1090.8,92c3.6,0,6.6,3,6.6,6.6c0,3.6-3,6.6-6.6,6.6c-3.6,0-6.6-3-6.6-6.6C1084.2,95,1087.1,92,1090.8,92z"></path><path class="wdt-decor-bg-with-out-mask-1" d="M1220.6,340.4c3.7,0,6.8,3,6.8,6.8s-3,6.8-6.8,6.8c-3.7,0-6.8-3-6.8-6.8S1216.8,340.4,1220.6,340.4z"></path><path class="wdt-decor-bg-with-out-mask-4" d="M1316.8,311.3c3.2,0,5.9,2.6,5.9,5.9c0,3.2-2.6,5.9-5.9,5.9c-3.2,0-5.9-2.6-5.9-5.9 C1311,313.9,1313.6,311.3,1316.8,311.3z"></path><path class="wdt-decor-bg-with-out-mask-3" d="M1551.5-0.5c3.7,0,6.7,3,6.7,6.7c0,3.7-3,6.7-6.7,6.7c-3.7,0-6.7-3-6.7-6.7C1544.9,2.5,1547.8-0.5,1551.5-0.5z"></path><path class="wdt-decor-bg-with-out-mask-1" d="M1411.9,363.9c3.9,0,7,3.1,7,7c0,3.9-3.1,7-7,7c-3.9,0-7-3.1-7-7C1404.9,367,1408,363.9,1411.9,363.9z"></path><path class="wdt-decor-bg-with-out-mask-0" d="M1512.8,310.2c3.8,0,7,3.1,7,7c0,3.8-3.1,7-7,7s-7-3.1-7-7C1505.9,313.3,1509,310.2,1512.8,310.2z"></path><path class="wdt-decor-bg-with-out-mask-5" d="M1578.8,266.2c3.1,0,5.6,2.5,5.6,5.6s-2.5,5.6-5.6,5.6c-3.1,0-5.6-2.5-5.6-5.6S1575.8,266.2,1578.8,266.2z"></path><path class="wdt-decor-bg-with-out-mask-5" d="M777.4,365.1c3.2,0,5.8,2.6,5.8,5.8c0,3.2-2.6,5.8-5.8,5.8c-3.2,0-5.8-2.6-5.8-5.8 C771.6,367.7,774.2,365.1,777.4,365.1z"></path><path class="wdt-decor-bg-with-out-mask-3" d="M1733.6,91.9c4,0,7.3,3.3,7.3,7.3c0,4-3.3,7.3-7.3,7.3c-4,0-7.3-3.3-7.3-7.3 C1726.3,95.2,1729.6,91.9,1733.6,91.9z"></path><path class="wdt-decor-bg-with-out-mask-1" d="M1864.2,173.5c3.6,0,6.5,2.9,6.5,6.5c0,3.6-2.9,6.5-6.5,6.5c-3.6,0-6.6-2.9-6.6-6.5 C1857.6,176.4,1860.6,173.5,1864.2,173.5z"></path><path class="wdt-decor-bg-with-out-mask-1" d="M1859.7,335.2c3.3,0,6.1,2.7,6.1,6.1c0,3.3-2.7,6.1-6.1,6.1c-3.3,0-6.1-2.7-6.1-6.1 C1853.6,338,1856.3,335.2,1859.7,335.2z"></path><path class="wdt-decor-bg-with-out-mask-2" d="M2052.4,353.4c3.4,0,6.1,2.7,6.1,6.1c0,3.4-2.7,6.1-6.1,6.1c-3.4,0-6.1-2.7-6.1-6.1 C2046.3,356.2,2049,353.4,2052.4,353.4z"></path><path class="wdt-decor-bg-with-out-mask-1" d="M1961.1,303.5c3.4,0,6.2,2.8,6.2,6.2s-2.8,6.2-6.2,6.2c-3.5,0-6.2-2.8-6.2-6.2S1957.7,303.5,1961.1,303.5z"></path><path class="wdt-decor-bg-with-out-mask-3" d="M2144.1,308.8c3,0,5.4,2.4,5.4,5.4c0,3-2.4,5.4-5.4,5.4c-3,0-5.4-2.4-5.4-5.4 C2138.7,311.3,2141.1,308.8,2144.1,308.8z"></path><path class="wdt-decor-bg-with-out-mask-3" d="M2221.1,254c3.3,0,6,2.7,6,6c0,3.3-2.7,6-6,6c-3.3,0-6-2.7-6-6C2215.1,256.7,2217.8,254,2221.1,254z"></path><path class="wdt-decor-bg-with-out-mask-3" d="M2272.3,161.6c3.4,0,6.2,2.8,6.2,6.2c0,3.4-2.8,6.2-6.2,6.2c-3.4,0-6.2-2.8-6.2-6.2 C2266.1,164.4,2268.9,161.6,2272.3,161.6z"></path><path class="wdt-decor-bg-with-out-mask-2" d="M2165.6,17.5c4.1,0,7.5,3.3,7.5,7.5c0,4.1-3.3,7.5-7.5,7.5s-7.5-3.3-7.5-7.5 C2158.2,20.9,2161.5,17.5,2165.6,17.5z"></path><path class="wdt-decor-bg-with-out-mask-5" d="M2379.2,99.8c3.3,0,5.9,2.6,5.9,5.9c0,3.3-2.6,5.9-5.9,5.9c-3.3,0-5.9-2.6-5.9-5.9 C2373.3,102.4,2376,99.8,2379.2,99.8z"></path><path class="wdt-decor-bg-with-out-mask-1" d="M2478.4,181.8c4,0,7.3,3.3,7.3,7.3c0,4-3.3,7.3-7.3,7.3c-4,0-7.3-3.3-7.3-7.3 C2471.2,185,2474.4,181.8,2478.4,181.8z"></path><path class="wdt-decor-bg-with-out-mask-1" d="M2494.3,339.5c3.1,0,5.7,2.5,5.7,5.6c0,3.1-2.5,5.6-5.7,5.6c-3.1,0-5.6-2.5-5.6-5.6 C2488.7,342,2491.2,339.5,2494.3,339.5z"></path><path class="wdt-decor-bg-with-out-mask-5" d="M121.5,266.6l-22.2,10c-2.7,1.2-5.8,0-7-2.6c-1.2-2.7,0-5.8,2.7-7l22.2-9.9c0.7-0.3,1.4-0.5,2.2-0.5 c2,0,3.9,1.2,4.8,3.1C125.3,262.3,124.2,265.4,121.5,266.6z"></path><path class="wdt-decor-bg-with-out-mask-3" d="M252.1,398.9l-21.1-12.2c-2.5-1.5-3.4-4.7-1.9-7.2c1-1.7,2.7-2.6,4.6-2.6c0.9,0,1.8,0.2,2.6,0.7l21.1,12.2 c2.5,1.5,3.4,4.7,1.9,7.2C257.9,399.5,254.6,400.3,252.1,398.9z"></path><path class="wdt-decor-bg-with-out-mask-3" d="M78.2,412.1L60,395.9c-2.2-1.9-2.4-5.3-0.4-7.4c1-1.2,2.5-1.8,3.9-1.8c1.2,0,2.5,0.4,3.5,1.3l18.1,16.2 c2.2,1.9,2.4,5.3,0.4,7.4C83.7,413.8,80.4,414,78.2,412.1z"></path><path class="wdt-decor-bg-with-out-mask-5" d="M180.7,192.7c-0.9,2.8-3.9,4.3-6.6,3.4c-2.8-0.9-4.3-3.9-3.4-6.6l7.5-23.1c0.7-2.2,2.8-3.6,5-3.6 c0.5,0,1.1,0.1,1.6,0.3c2.8,0.9,4.3,3.9,3.4,6.6L180.7,192.7L180.7,192.7z"></path><path class="wdt-decor-bg-with-out-mask-3" d="M41.2,105.4l-22.8-8.6c-2.7-1-4.1-4.1-3.1-6.8c0.8-2.1,2.8-3.4,4.9-3.4c0.6,0,1.2,0.1,1.9,0.3l22.8,8.5 c2.7,1,4.1,4.1,3.1,6.8C47,105.1,44,106.5,41.2,105.4z"></path><path class="wdt-decor-bg-with-out-mask-0" d="M404.8,370.7l-22.2,9.9c-2.7,1.2-5.8,0-7-2.6c-1.2-2.7,0-5.8,2.6-7l22.2-10c0.7-0.3,1.4-0.5,2.2-0.5 c2,0,3.9,1.2,4.8,3.1C408.7,366.4,407.5,369.5,404.8,370.7z"></path><path class="wdt-decor-bg-with-out-mask-0" d="M326.7,303.7l-22.3-9.7c-2.7-1.2-3.9-4.3-2.7-6.9c0.9-2,2.8-3.2,4.8-3.2c0.7,0,1.4,0.1,2.1,0.4l22.3,9.7 c2.7,1.2,3.9,4.3,2.7,6.9S329.4,304.9,326.7,303.7z"></path><path class="wdt-decor-bg-with-out-mask-1" d="M480.5,282.2l-22.2,9.9c-2.7,1.2-5.8,0-7-2.6c-1.2-2.7,0-5.8,2.6-7l22.2-10c0.7-0.3,1.4-0.5,2.2-0.5 c2,0,3.9,1.2,4.8,3.1C484.3,277.9,483.1,281,480.5,282.2z"></path><path class="wdt-decor-bg-with-out-mask-4" d="M654.9,92l-19.1-15.1c-2.3-1.8-2.7-5.1-0.9-7.4c1-1.3,2.6-2,4.1-2c1.1,0,2.3,0.4,3.3,1.1l19.1,15.1 c2.3,1.8,2.7,5.1,0.9,7.4C660.5,93.4,657.2,93.8,654.9,92L654.9,92z"></path><path class="wdt-decor-bg-with-out-mask-3" d="M758.1,282.9c-2.7,1.1-5.8-0.2-6.9-2.9l-9.2-22.5c-1.1-2.7,0.2-5.8,2.9-6.9c0.7-0.3,1.3-0.4,2-0.4 c2.1,0,4,1.2,4.9,3.3l9.2,22.5C762,278.7,760.8,281.8,758.1,282.9L758.1,282.9z"></path><path class="wdt-decor-bg-with-out-mask-2" d="M833.3,164.1l-22.2,9.9c-2.7,1.2-5.8,0-7-2.6c-1.2-2.7,0-5.8,2.6-7l22.2-9.9c0.7-0.3,1.4-0.5,2.2-0.5 c2,0,3.9,1.2,4.8,3.1C837.2,159.8,836,162.9,833.3,164.1z"></path><path class="wdt-decor-bg-with-out-mask-1" d="M1122,313.2l-24.3-1.7c-2.9-0.2-5.1-2.7-4.9-5.6c0.2-2.8,2.5-4.9,5.3-4.9c0.1,0,0.3,0,0.4,0l24.3,1.7 c2.9,0.2,5.1,2.7,4.9,5.6S1124.9,313.4,1122,313.2L1122,313.2z"></path><path class="wdt-decor-bg-with-out-mask-3" d="M1045,386.7c-2.6,1.2-5.8,0.1-7-2.6l-10.2-22.1c-1.2-2.6-0.1-5.8,2.6-7c0.7-0.3,1.5-0.5,2.2-0.5 c2,0,3.9,1.1,4.8,3.1l10.2,22.1C1048.8,382.4,1047.6,385.5,1045,386.7L1045,386.7z"></path><path class="wdt-decor-bg-with-out-mask-0" d="M898,390.4l-22.8-8.5c-2.7-1-4.1-4.1-3.1-6.8c0.8-2.1,2.8-3.4,4.9-3.4c0.6,0,1.2,0.1,1.9,0.3l22.8,8.6 c2.7,1,4.1,4.1,3.1,6.8C903.8,390.1,900.8,391.4,898,390.4z"></path><path class="wdt-decor-bg-with-out-mask-0" d="M1345.1,64l-22.2,9.9c-2.7,1.2-5.8,0-7-2.6c-1.2-2.7,0-5.8,2.7-7l22.2-10c0.7-0.3,1.4-0.5,2.1-0.5 c2,0,3.9,1.2,4.8,3.1C1349,59.6,1347.8,62.8,1345.1,64z"></path><path class="wdt-decor-bg-with-out-mask-0" d="M1513.5,399.4c-1.1,2.7-4.1,4-6.8,2.9c-2.7-1.1-4-4.1-2.9-6.8l9-22.6c0.8-2.1,2.8-3.3,4.9-3.3 c0.6,0,1.3,0.1,1.9,0.4c2.7,1.1,4,4.1,2.9,6.8L1513.5,399.4z"></path><path class="wdt-decor-bg-with-out-mask-5" d="M1221.4,317.2c-2.5,1.5-5.7,0.6-7.2-1.9l-12.2-21.1c-1.5-2.5-0.6-5.7,1.9-7.2c0.8-0.5,1.7-0.7,2.6-0.7 c1.8,0,3.6,0.9,4.6,2.6l12.2,21.1C1224.8,312.5,1223.9,315.7,1221.4,317.2z"></path><path class="wdt-decor-bg-with-out-mask-0" d="M1414.7,287.5c-2.6,1.2-5.8,0.1-7-2.6l-10.2-22.1c-1.2-2.6-0.1-5.8,2.6-7c0.7-0.3,1.5-0.5,2.2-0.5 c2,0,3.9,1.1,4.8,3.1l10.2,22.1C1418.5,283.2,1417.3,286.3,1414.7,287.5L1414.7,287.5z"></path><path class="wdt-decor-bg-with-out-mask-3" d="M1687.3,390.7l-21.1-12.2c-2.5-1.5-3.4-4.7-1.9-7.2c1-1.7,2.7-2.6,4.6-2.6c0.9,0,1.8,0.2,2.6,0.7l21.1,12.2 c2.5,1.5,3.4,4.7,1.9,7.2C1693.1,391.3,1689.9,392.2,1687.3,390.7z"></path><path class="wdt-decor-bg-with-out-mask-3" d="M2402.2,278.8l-18.8,15.4c-2.2,1.8-5.6,1.5-7.4-0.7c-1.8-2.2-1.5-5.6,0.7-7.4l18.8-15.4c1-0.8,2.2-1.2,3.3-1.2 c1.5,0,3,0.7,4.1,1.9C2404.8,273.6,2404.4,276.9,2402.2,278.8L2402.2,278.8z"></path><path class="wdt-decor-bg-with-out-mask-5" d="M2175.8,400.3c-2.3,1.7-5.7,1.2-7.3-1.2l-14.3-19.7c-1.7-2.4-1.2-5.7,1.2-7.4c0.9-0.7,2-1,3.1-1 c1.6,0,3.2,0.8,4.3,2.2l14.2,19.7C2178.7,395.3,2178.2,398.6,2175.8,400.3z"></path><path class="wdt-decor-bg-with-out-mask-0" d="M2319.6,396.8l-21.1-12.2c-2.5-1.5-3.4-4.7-1.9-7.2c1-1.7,2.7-2.6,4.6-2.6c0.9,0,1.8,0.2,2.6,0.7l21.1,12.2 c2.5,1.5,3.4,4.7,1.9,7.2C2325.3,397.4,2322.1,398.3,2319.6,396.8z"></path><path class="wdt-decor-bg-with-out-mask-0" d="M2301.1,207.8h-24.3c-2.9,0-5.3-2.4-5.3-5.3c0-2.9,2.4-5.3,5.3-5.3h24.3c2.9,0,5.3,2.4,5.3,5.3 C2306.4,205.4,2304.1,207.8,2301.1,207.8z"></path><path class="wdt-decor-bg-with-out-mask-2" d="M2125.6,177.4c-0.7,2.8-3.5,4.6-6.3,3.9c-2.8-0.7-4.6-3.5-3.9-6.3l5.6-23.7c0.6-2.4,2.7-4.1,5.1-4.1 c0.4,0,0.8,0,1.2,0.1c2.8,0.7,4.6,3.5,3.9,6.3L2125.6,177.4L2125.6,177.4z"></path><path class="wdt-decor-bg-with-out-mask-4" d="M2040.2,270.2l-21.1,12.2c-2.5,1.5-5.7,0.6-7.2-1.9c-1.5-2.5-0.6-5.7,1.9-7.2l21.1-12.2 c0.8-0.5,1.7-0.7,2.6-0.7c1.8,0,3.6,0.9,4.6,2.6C2043.6,265.5,2042.8,268.8,2040.2,270.2z"></path><path class="wdt-decor-bg-with-out-mask-3" d="M1948.3,81.5l-21.1-12.2c-2.5-1.5-3.4-4.7-1.9-7.2c1-1.7,2.7-2.6,4.6-2.6c0.9,0,1.8,0.2,2.6,0.7l21.1,12.2 c2.5,1.5,3.4,4.7,1.9,7.2C1954.1,82,1950.9,82.9,1948.3,81.5z"></path><path class="wdt-decor-bg-with-out-mask-3" d="M1768.1,304.2l-23.6,6c-2.8,0.7-5.7-1-6.4-3.8c-0.7-2.8,1-5.7,3.8-6.4l23.6-6c0.4-0.1,0.9-0.2,1.3-0.2 c2.3,0,4.5,1.6,5.1,4C1772.6,300.6,1770.9,303.5,1768.1,304.2L1768.1,304.2z"></path><path class="wdt-decor-bg-with-out-mask-2" d="M1875.4,414.8l-21.1-12.2c-2.5-1.5-3.4-4.7-1.9-7.2c1-1.7,2.8-2.6,4.6-2.6c0.9,0,1.8,0.2,2.6,0.7l21.1,12.2 c2.5,1.5,3.4,4.7,1.9,7.2C1881.1,415.4,1877.9,416.3,1875.4,414.8z"></path><path class="wdt-decor-bg-with-out-mask-5" d="M1660.1,247.2l-22.2,10c-2.7,1.2-5.8,0-7-2.6c-1.2-2.7,0-5.8,2.7-7l22.2-9.9c0.7-0.3,1.4-0.5,2.1-0.5 c2,0,3.9,1.2,4.8,3.1C1663.9,242.9,1662.7,246,1660.1,247.2z"></path><path class="wdt-decor-bg-with-out-mask-1" d="M1624.8,134.9l-20.4-13.2c-2.4-1.6-3.1-4.8-1.5-7.3c1-1.5,2.7-2.4,4.4-2.4c1,0,2,0.3,2.9,0.9l20.4,13.2 c2.4,1.6,3.1,4.8,1.5,7.3C1630.5,135.8,1627.2,136.5,1624.8,134.9L1624.8,134.9z"></path><path class="wdt-decor-bg-with-out-mask-3" d="M1843.3,223.5l-18.6-15.7c-2.2-1.9-2.5-5.2-0.6-7.4c1-1.2,2.5-1.9,4-1.9c1.2,0,2.4,0.4,3.4,1.2l18.6,15.7 c2.2,1.9,2.5,5.2,0.6,7.4C1848.9,225.1,1845.6,225.3,1843.3,223.5z"></path><path class="wdt-decor-bg-with-out-mask-0" d="M2081.1,415.5l-21.6,11.1c-2.6,1.3-5.8,0.3-7.1-2.3s-0.3-5.8,2.3-7.1l21.6-11.1c0.8-0.4,1.6-0.6,2.4-0.6 c1.9,0,3.8,1,4.7,2.9C2084.7,411,2083.7,414.2,2081.1,415.5z"></path><path class="wdt-decor-bg-with-out-mask-1" d="M2217.5,310.8l-23.2-7.4c-2.8-0.9-4.3-3.9-3.4-6.6c0.7-2.2,2.8-3.7,5-3.7c0.5,0,1.1,0.1,1.6,0.3l23.2,7.4 c2.8,0.9,4.3,3.9,3.4,6.6C2223.3,310.2,2220.3,311.7,2217.5,310.8L2217.5,310.8z"></path><path class="wdt-decor-bg-with-out-mask-1" d="M26.9,260.9c1.9,0,3.8,1,4.7,2.9c1.3,2.6,0.3,5.8-2.3,7.1L7.7,282c-2.6,1.3-5.8,0.3-7.1-2.3 c-1.3-2.6-0.3-5.8,2.3-7.1l21.6-11.1C25.3,261.1,26.1,260.9,26.9,260.9z"></path><path class="wdt-decor-bg-with-out-mask-0" d="M597.1,279.1l-17.2-17.2c-2.1-2.1-2.1-5.4,0-7.5c1-1,2.4-1.5,3.7-1.5c1.3,0,2.7,0.5,3.7,1.5l17.2,17.2 c2.1,2.1,2.1,5.4,0,7.5C602.5,281.1,599.2,281.1,597.1,279.1z"></path><path class="wdt-decor-bg-with-out-mask-3" d="M759.9,413l-21.7-11c-2.6-1.3-3.6-4.5-2.3-7.1c0.9-1.8,2.8-2.9,4.7-2.9c0.8,0,1.6,0.2,2.4,0.6l21.7,11 c2.6,1.3,3.6,4.5,2.3,7.1C765.6,413.2,762.5,414.3,759.9,413L759.9,413z"></path><path class="wdt-decor-bg-with-out-mask-4" d="M941.8,324.2l-19.2-14.9c-2.3-1.8-2.7-5.1-0.9-7.4c1-1.3,2.6-2,4.2-2c1.1,0,2.3,0.4,3.2,1.1l19.2,14.9 c2.3,1.8,2.7,5.1,0.9,7.4C947.4,325.6,944.1,326,941.8,324.2L941.8,324.2z"></path><path class="wdt-decor-bg-with-out-mask-4" d="M1969.2,366.5l-20,13.9c-2.4,1.7-5.7,1.1-7.3-1.3c-1.7-2.4-1.1-5.7,1.3-7.3l19.9-13.9c0.9-0.6,2-0.9,3-0.9 c1.7,0,3.3,0.8,4.3,2.3C1972.1,361.6,1971.5,364.8,1969.2,366.5L1969.2,366.5z"></path></svg>