<svg xmlns="http://www.w3.org/2000/svg" x="0px" y="0px" viewBox="0 0 2500 652.3" xml:space="preserve"><path d="M109.8,16.1c23,7.7,41,27.6,61.6,39.8c20.6,12.3,41.8,15.9,64.1,5.9c22.7-10.2,40.4-28.6,62-40.6c9.2-5.2,18.7-8.6,29.2-5.9 c11.2,2.8,21.4,10.3,30.6,16.9c19.1,13.6,38.4,31.1,62.3,35.2c24,4,45.1-9.3,63.7-22.8c16-11.6,37.6-33.1,59.2-30.1 c22.3,3,42,24,59.9,36.1c19,12.9,40.7,22.3,63.7,14.8c23.6-7.7,41.9-25.6,62.3-39c9.2-6,19.9-12.8,31.3-12.2 c10.4,0.5,20,6.6,28.5,12.2c20.4,13.3,38.7,31.3,62.3,39c23,7.5,44.7-1.9,63.7-14.8c17.9-12.1,38.3-34,60.9-36.3 c21.7-2.2,43.4,19.7,59.5,31.3c18.2,13.1,39,25.7,62.3,21.8c23.9-4,43.2-21.6,62.3-35.2c19.6-14,37-23.8,59.9-11 c21.6,12.1,39.3,30.4,62,40.6c22.3,10,43.5,6.4,64.1-5.9c20.6-12.3,38.6-32.1,61.6-39.8c22.3-7.5,43.5,12,60.2,24.3 c18.2,13.4,39.1,29.1,63,27.7c23.6-1.4,43.4-17.4,61.6-30.8c16.9-12.5,36.7-29.1,58.8-20.2c22.8,9.2,40.3,28.6,61.6,40.5 c21.1,11.8,42.1,13.5,64.1,3c22.4-10.8,39.9-29.5,62-40.9c22.7-11.8,41.2,1.1,59.9,14.6c19,13.8,38.7,30.9,63,33.6 c23.8,2.6,44.8-12,63-25.3c16-11.7,37.2-32.1,58.8-27.6c22.5,4.7,41.5,25.3,60.2,37.5c19.4,12.7,41,20.3,63.7,11.9 c23.4-8.7,41.5-26.7,62.3-39.8c9.2-5.8,19.7-11.7,31-10.1c10.5,1.4,20.3,8,28.9,13.8c19.9,13.5,38.6,31.6,62.3,37.9 c23.4,6.3,44.9-4.5,63.7-17.6c13.5-9.4,28.5-24,45.1-30.8V666H0V66.9c19.1-4,35.3-16,50.9-27.5C67.3,27.3,87.9,8.8,109.8,16.1z"></path></svg>